<svg xmlns="http://www.w3.org/2000/svg" viewBox="0 0 500 500"><defs><style>.cls-1{fill:#6dc0d5;}</style></defs><path class="cls-1" d="M271,378a284.32,284.32,0,0,0,215.63-98.73C466,390.07,368.88,474,252.05,474,120.21,474,13.33,367.13,13.33,235.29c0-6.31.32-12.55.8-18.74C60.18,312.05,157.91,378,271,378Z"/><path class="cls-1" d="M306.74,325.75a222.77,222.77,0,0,0,179.93-46.37c-31.22,82.64-117.74,134-207.84,117.83C177.16,379,109.49,281.82,127.69,180.15c.88-4.87,2-9.64,3.21-14.35A223.35,223.35,0,0,0,306.74,325.75Z"/><path class="cls-1" d="M303.69,246A222.76,222.76,0,0,0,486.06,281.6c-63.74,61.17-163.93,70.26-238.32,16.93-83.94-60.19-103.21-177-43-261,2.88-4,5.93-7.84,9.07-11.56A223.32,223.32,0,0,0,303.69,246Z"/><circle class="cls-1" cx="404.53" cy="187.11" r="82.14"/></svg>
