<svg version="1.1" xmlns="http://www.w3.org/2000/svg" x="0" y="0" viewBox="0 0 1083.4 818.5" xml:space="preserve"><style>.st1{fill:#6dc0d5}.st2{fill:#2f2e41}.st3{fill:#ffb8b8}.st4{opacity:.2;enable-background:new}.st5{fill:#3f3d56}</style><path d="M1083.4 653l-344 135.8-75.3 29.7-162.8-56.8-138.9-48.4-11.5-4-16.9-42.9-67.2-170.3-33.8-85.5-10.1-25.7-7.3-18.6-16.4-41.4-26.5-67.1 57.9-22.8 55.3-21.8 39.7-15.7L825.6 0l257.8 653z" fill="#eaf3f8"/><path class="st1" d="M24.9 436.3c8.7-1.9 17.3 3.6 19.2 12.3 1.9 8.7-3.6 17.3-12.3 19.2-8.7 1.9-31.8-9.6-31.8-9.6s16.2-20.1 24.9-21.9zM28.8 767.1c5.7-6.8 15.9-7.8 22.7-2.1 6.8 5.7 7.8 15.9 2.1 22.7-5.7 6.8-30.9 12-30.9 12s.4-25.8 6.1-32.6z"/><path class="st2" d="M727.7 242.4c-26-43.9-77.3-45.9-77.3-45.9s-50-6.4-82.2 60.4c-29.9 62.3-71.2 122.4-6.6 137l11.7-36.3 7.2 39c9.2.7 18.4.8 27.6.5 69.2-2.2 135 .7 132.9-24.2-2.9-33 11.6-88.3-13.3-130.5z"/><path class="st3" d="M621.1 334.2c8.9 19.8 14.6 43.4 18 69.6l71.8-4.5c-16.5-23.4-22-50.2-15.7-80.8l-74.1 15.7z"/><path class="st4" d="M621.1 334.2c8.9 19.8 14.6 43.4 18 69.6l71.8-4.5c-16.5-23.4-22-50.2-15.7-80.8l-74.1 15.7z"/><path class="st3" d="M287.9 711s-37.2 19.9-18.3 36.9 43.8-22.5 43.8-22.5L287.9 711z"/><path class="st2" d="M742.3 652.9l-.6 27.2-1.2 58.8-1 49.9-75.3 29.7-162.8-56.8 10.7-59.5 8.7-48 3.9-21.5 195.2-26.9 22.4 47.1z"/><path class="st5" d="M742.3 652.9l-.6 27.2c-69.1-1.8-176.2-18.4-221-25.9l3.9-21.5 195.2-26.9 22.5 47.1z"/><circle class="st3" cx="655.9" cy="297.2" r="56.1"/><path class="st1" d="M763.6 683.2s6.7 60.6-33.7 56.1l-6.7-60.6-35.9-35.9-101-2.2-74.1 69.6s-2.2-71.8 6.7-78.5 29.2-22.4 29.2-22.4v-11.2l-60.6-123.4s35.9-74.1 65.1-76.3l38.2-2.2s13.5-6.7 13.5-9-2.2-20.2 9-15.7c0 0 1-23 12.8-16 0 0 37.2 29.2 75 1.3 0 0 17.6-3.2 15.4 5.7s0 15.7 4.5 15.7 24.7 6.7 24.7 11.2c0 1 1.5 10.3 3.7 24.2 8.3 51 27.7 164.3 27.7 164.3s20.2 29-13.5 105.3z"/><path class="st1" d="M503.3 463.3l-15.7 11.2-143.6 184-76.3 60.6s42.6-6.7 33.7 29.2L564 597.9l-60.7-134.6z"/><path class="st5" d="M749.4 413.5c-3 17.6-100.2 13.9-113.7 13.9s-24.7-2.2-38.2-11.2-6.7-20.2-6.7-20.2 11.5-8.7 11.5-11-2.2-20.2 9-15.7c0 0 1-23 12.8-16 0 0 39.2 31.2 77 3.3 0 0 17.6-3.2 15.4 5.7s0 15.7 4.5 15.7 24.7 6.7 24.7 11.2c0 1 1.4 10.3 3.7 24.3z"/><path class="st3" d="M737.8 329.8s-18-38.2-35.9-20.2 20.2 44.9 20.2 44.9l15.7-24.7z"/><path class="st1" d="M737.8 320.8s-27.7 35-36.3 37.7c0 0 25.1 99.2 56.5 126.1l18 92s76.3-31.4 58.4-83c-.2-.5-.4-1-.5-1.5-15-43-35.7-83.8-61.5-121.3l-34.6-50z"/><path class="st4" d="M723 424.7l55.2 151.9-20.2-92-35-59.9z"/><path class="st2" d="M716.2 238.2l-50.7-26.6-70.1 10.9-14.5 64 36.1-1.4 10.1-23.5v23.1l16.7-.6 9.7-37.5 6 39.9 59.2-1.2-2.5-47.1z"/><path class="st2" d="M339.2 779.2c-34.9-19.4-56.6-46-64.5-78.9-5.9-24.4-4.2-51.9 5-81.7 6.9-22 17.1-42.7 30.4-61.5 70.6-100 77-165.1 69.9-202.2-7.8-40.6-33-57.5-33.3-57.7l1.1-1.7c.3.2 26.2 17.4 34.1 58.9 4.6 23.9 2.4 51.1-6.4 81-11 37.1-32.5 78.5-63.8 122.8a217.94 217.94 0 00-30.2 60.9c-15.2 48.9-17.3 116 58.6 158.3l-.9 1.8zM275.5 594.1c-27.5-15.3-26.7-39.6-21.2-57.3 2.4-7.8 6.1-15.2 10.8-21.8 24.7-35 27-57.8 24.5-70.7-2.7-14-11.3-19.8-11.4-19.8l1.1-1.7c.4.2 9.4 6.3 12.3 21.1 3.7 19.3-4.6 43.7-24.8 72.2-4.6 6.5-8.2 13.7-10.5 21.3-5.3 17-6 40.3 20.3 55l-1.1 1.7zM399.2 372.1l-1-1.7c26.3-14.7 25.6-38 20.3-55-2.4-7.6-5.9-14.8-10.5-21.3-20.2-28.6-28.5-52.9-24.8-72.2 2.9-14.9 11.9-20.9 12.3-21.1l1.1 1.7c-.1.1-8.8 5.9-11.4 19.9-2.5 12.9-.2 35.6 24.5 70.6 4.7 6.7 8.4 14 10.8 21.8 5.4 17.7 6.2 42-21.3 57.3z" transform="translate(-58.29 -40.765)"/><path class="st1" d="M457.9 272.6c-9 13.9-27.6 17.8-41.5 8.7-13.9-9-17.8-27.6-8.7-41.5 9.1-13.9 54.6-28.8 54.6-28.8s4.7 47.7-4.4 61.6zM446.9 179.6c-9 13.9-27.6 17.8-41.5 8.7-13.9-9-17.8-27.6-8.7-41.5 9.1-13.9 54.6-28.8 54.6-28.8s4.7 47.7-4.4 61.6z" transform="translate(-58.29 -40.765)"/><path class="st2" d="M398.6 520.3c-17.1 0-31-13.8-31-30.9 0-12 6.9-22.9 17.7-28 15.1-7.2 60.4 3.3 62.3 3.8l1.2.3-.5 1.1c-.9 1.8-21.2 43.6-36.3 50.8-4.3 1.9-8.8 2.9-13.4 2.9zm2.5-59.5c-6.1 0-11.5.6-15 2.3-14.5 6.9-20.6 24.2-13.7 38.7 6.9 14.5 24.2 20.6 38.7 13.7 13.1-6.3 31.4-41.9 34.8-48.7-5.6-1.2-28-6-44.8-6z" transform="translate(-58.29 -40.765)"/><path class="st1" d="M337.4 245.1c12.2 11.2 13.1 30.1 2 42.4-11.2 12.2-30.1 13.1-42.4 2-12.2-11.2-19.7-58.6-19.7-58.6s47.9 3 60.1 14.2zM267.4 371.1c12.2 11.2 13.1 30.1 2 42.4s-30.1 13.1-42.4 2c-12.2-11.2-19.7-58.6-19.7-58.6s47.9 3 60.1 14.2z" transform="translate(-58.29 -40.765)"/><path class="st2" d="M345.9 388.7c-10 0-29.2-9.5-30-9.9l-1.1-.6.8-1c.7-.8 16.6-20.3 25.5-22.2 9.2-2 18.3 3.9 20.3 13.1s-3.9 18.3-13.1 20.3c-.8.3-1.6.3-2.4.3zm-28-11.1c4.7 2.3 22.8 10.5 30 9 8.2-1.8 13.3-9.8 11.6-18-1.8-8.2-9.8-13.3-18-11.6-7.2 1.6-20.3 16.6-23.6 20.6z" transform="translate(-58.29 -40.765)"/><path class="st1" d="M238.5 795.6c4.4-7.7 14.2-10.5 22-6.1 7.7 4.4 10.5 14.2 6.1 21.9-4.4 7.7-28.3 17.3-28.3 17.3s-4.2-25.4.2-33.1z" transform="translate(-58.29 -40.765)"/><path class="st2" d="M186.1 624c-6.9-.1-13.8-.7-20.6-1.8l-1.2-.2.5-1.2c.4-1 9.8-24.3 17.8-28.8 8.2-4.7 18.7-1.8 23.3 6.5s1.8 18.7-6.5 23.3c-2.9 1.7-7.9 2.2-13.3 2.2zm-19-3.6c5.2.7 24.9 3.3 31.3-.3 7.3-4.1 9.8-13.3 5.7-20.6s-13.3-9.8-20.6-5.7c-6.4 3.6-14.4 21.8-16.4 26.6z" transform="translate(-58.29 -40.765)"/></svg>
