<svg xmlns="http://www.w3.org/2000/svg" viewBox="0 0 500 300"><defs><style>.cls-1{fill:#5a726b;}.cls-2{fill:#6dc0d5;}</style></defs><path class="cls-1" d="M22.49,165.3c0-7-.14-12.7-.56-18.28H32.82l.7,11.17h.28c3.35-6.43,11.16-12.71,22.33-12.71,9.35,0,23.86,5.59,23.86,28.76v40.33H67.71V175.63c0-10.88-4-20-15.63-20a17.45,17.45,0,0,0-16.47,12.56,17.65,17.65,0,0,0-.84,5.73v40.61H22.49Z"/><path class="cls-1" d="M150.62,180.24c0,25-17.31,35.87-33.64,35.87-18.28,0-32.38-13.4-32.38-34.76,0-22.61,14.8-35.87,33.5-35.87C137.5,145.48,150.62,159.58,150.62,180.24Zm-53.6.7c0,14.79,8.52,26,20.52,26,11.73,0,20.52-11,20.52-26.24,0-11.45-5.72-26-20.24-26S97,168.09,97,180.94Z"/><path class="cls-1" d="M155.65,165.3c0-7-.14-12.7-.56-18.28H166l.69,11.17H167c3.35-6.43,11.17-12.71,22.33-12.71,9.35,0,23.87,5.59,23.87,28.76v40.33H200.87V175.63c0-10.88-4.05-20-15.63-20a17.45,17.45,0,0,0-16.47,12.56,17.65,17.65,0,0,0-.84,5.73v40.61H155.65Z"/><path class="cls-1" d="M222.64,169.07c0-8.65-.28-15.63-.56-22h11l.56,11.58H234c5-8.23,13-13.12,24-13.12,16.33,0,28.61,13.82,28.61,34.34,0,24.28-14.8,36.29-30.71,36.29-8.93,0-16.75-3.91-20.8-10.61h-.27v36.71H222.64Zm12.15,18a27.55,27.55,0,0,0,.55,5,19,19,0,0,0,18.43,14.38c13,0,20.52-10.61,20.52-26.1,0-13.54-7.12-25.13-20.1-25.13-8.38,0-16.19,6-18.57,15.22a19.82,19.82,0,0,0-.83,5Z"/><path class="cls-1" d="M291.59,168.09c0-8-.14-14.79-.55-21.07h10.74l.42,13.26h.56c3.07-9.07,10.47-14.8,18.7-14.8a13.25,13.25,0,0,1,3.49.42v11.59a18.41,18.41,0,0,0-4.19-.42c-8.65,0-14.79,6.56-16.47,15.77a34.59,34.59,0,0,0-.55,5.72v36H291.59Z"/><path class="cls-1" d="M386.5,180.24c0,25-17.3,35.87-33.63,35.87-18.29,0-32.38-13.4-32.38-34.76,0-22.61,14.79-35.87,33.49-35.87C373.38,145.48,386.5,159.58,386.5,180.24Zm-53.59.7c0,14.79,8.51,26,20.52,26,11.72,0,20.51-11,20.51-26.24,0-11.45-5.72-26-20.24-26S332.91,168.09,332.91,180.94Z"/><path class="cls-1" d="M392.79,214.57v-58.2H383.3V147h9.49v-3.63c0-17.86,10.46-29.45,29.45-29.45,6.28,0,13.67,2,17.16,4.47l-3.49,9.35c-2.93-2.09-8.23-3.91-14.23-3.91-13,0-16.75,9.07-16.75,19.82V147h39.22v67.55H432v-58.2H404.93v58.2Z"/><path class="cls-1" d="M468.86,127.62V147h17.58v9.35H468.86V192.8c0,8.37,2.37,13.12,9.21,13.12a27.29,27.29,0,0,0,7.12-.84l.56,9.21A30.05,30.05,0,0,1,474.86,216c-5.72,0-10.33-1.82-13.26-5.17-3.49-3.63-4.75-9.63-4.75-17.58V156.37H446.39V147h10.46V130.83Z"/><path class="cls-2" d="M61.72,244.67c0-3.49-.07-6.35-.28-9.15h5.45l.35,5.59h.14a12.41,12.41,0,0,1,11.16-6.35c4.68,0,11.94,2.79,11.94,14.37V269.3H84.34V249.83c0-5.44-2-10-7.82-10a8.73,8.73,0,0,0-8.24,6.28,8.85,8.85,0,0,0-.41,2.86V269.3H61.72Z"/><path class="cls-2" d="M100.39,253.53c.14,8.31,5.44,11.73,11.58,11.73a22.12,22.12,0,0,0,9.35-1.75l1.05,4.4A27.48,27.48,0,0,1,111.13,270c-10.39,0-16.61-6.84-16.61-17s6-18.21,15.85-18.21c11,0,14,9.7,14,15.91a23.2,23.2,0,0,1-.21,2.86Zm18-4.4c.07-3.91-1.6-10-8.51-10-6.21,0-8.94,5.73-9.42,10Z"/><path class="cls-2" d="M131.86,253.53c.14,8.31,5.44,11.73,11.59,11.73a22.15,22.15,0,0,0,9.35-1.75l1,4.4A27.55,27.55,0,0,1,142.61,270c-10.4,0-16.61-6.84-16.61-17s6-18.21,15.84-18.21c11,0,14,9.7,14,15.91a23.2,23.2,0,0,1-.21,2.86Zm18-4.4c.07-3.91-1.61-10-8.52-10-6.21,0-8.93,5.73-9.42,10Z"/><path class="cls-2" d="M189.09,219.75v40.83c0,3,.07,6.42.28,8.72h-5.52l-.27-5.86h-.14a12.51,12.51,0,0,1-11.52,6.63c-8.17,0-14.45-6.91-14.45-17.17-.07-11.23,6.91-18.14,15.15-18.14,5.16,0,8.65,2.44,10.19,5.16H183V219.75ZM183,249.27a10.79,10.79,0,0,0-.28-2.58,9,9,0,0,0-8.87-7.12c-6.35,0-10.12,5.59-10.12,13.05,0,6.84,3.35,12.5,10,12.5a9.25,9.25,0,0,0,9-7.33,10.67,10.67,0,0,0,.28-2.65Z"/><path class="cls-2" d="M195,263a16,16,0,0,0,8.09,2.44c4.47,0,6.57-2.23,6.57-5s-1.75-4.54-6.29-6.21c-6.07-2.17-8.93-5.52-8.93-9.56,0-5.45,4.4-9.91,11.66-9.91a16.79,16.79,0,0,1,8.3,2.09l-1.53,4.47a13.13,13.13,0,0,0-6.91-2c-3.63,0-5.66,2.1-5.66,4.61,0,2.79,2,4.05,6.42,5.72,5.87,2.23,8.87,5.17,8.87,10.19,0,5.93-4.61,10.12-12.63,10.12a19.38,19.38,0,0,1-9.5-2.3Z"/><path class="cls-2" d="M255.51,226a3.8,3.8,0,0,1-7.6,0,3.74,3.74,0,0,1,3.84-3.84A3.64,3.64,0,0,1,255.51,226Zm-6.84,43.27V235.52h6.15V269.3Z"/><path class="cls-2" d="M261.52,244.67c0-3.49-.07-6.36-.28-9.15h5.44l.35,5.59h.14a12.42,12.42,0,0,1,11.17-6.36c4.67,0,11.93,2.8,11.93,14.38V269.3h-6.14V249.83c0-5.44-2-10-7.82-10a8.71,8.71,0,0,0-8.23,6.28,8.84,8.84,0,0,0-.42,2.86V269.3h-6.14Z"/><path class="cls-2" d="M325.93,219.75v40.83c0,3,.07,6.42.28,8.72H320.7l-.28-5.86h-.14c-1.88,3.77-6,6.63-11.52,6.63-8.16,0-14.44-6.91-14.44-17.17-.07-11.24,6.91-18.15,15.14-18.15,5.17,0,8.66,2.45,10.19,5.17h.14V219.75Zm-6.14,29.52a10.79,10.79,0,0,0-.28-2.58,9,9,0,0,0-8.86-7.12c-6.35,0-10.12,5.58-10.12,13.05,0,6.84,3.35,12.5,10,12.5a9.23,9.23,0,0,0,9-7.33,10.7,10.7,0,0,0,.28-2.66Z"/><path class="cls-2" d="M336.05,253.53c.14,8.3,5.44,11.72,11.58,11.72a22.23,22.23,0,0,0,9.36-1.74l1,4.4A27.46,27.46,0,0,1,346.8,270c-10.4,0-16.61-6.84-16.61-17s6-18.22,15.84-18.22c11,0,14,9.71,14,15.92a23.2,23.2,0,0,1-.21,2.86Zm18-4.4c.07-3.91-1.61-10-8.52-10-6.21,0-8.93,5.73-9.42,10Z"/><path class="cls-2" d="M366.76,235.52l4.81,7.26c1.26,1.89,2.31,3.63,3.42,5.51h.21c1.12-2,2.23-3.76,3.35-5.58l4.75-7.19h6.63l-11.52,16.33,11.87,17.45h-7l-5-7.6c-1.32-2-2.44-3.84-3.63-5.87h-.14c-1.11,2-2.3,3.84-3.56,5.87l-4.88,7.6h-6.77l12-17.24-11.44-16.54Z"/><path class="cls-2" d="M391.25,265.67a4.13,4.13,0,0,1,4.19-4.39,4.4,4.4,0,0,1-.07,8.79A4.11,4.11,0,0,1,391.25,265.67Z"/><path class="cls-2" d="M434.24,252.13c0,12.5-8.65,17.94-16.82,17.94-9.14,0-16.19-6.7-16.19-17.38,0-11.3,7.4-17.94,16.75-17.94C427.68,234.75,434.24,241.8,434.24,252.13Zm-26.8.35c0,7.4,4.26,13,10.26,13S428,260,428,252.34c0-5.72-2.86-13-10.12-13S407.44,246.06,407.44,252.48Z"/><path class="cls-2" d="M438.5,246.06c0-4-.07-7.4-.28-10.54h5.37l.21,6.63h.28c1.54-4.53,5.24-7.4,9.35-7.4a6.66,6.66,0,0,1,1.75.21v5.8a9.25,9.25,0,0,0-2.1-.21c-4.32,0-7.39,3.28-8.23,7.88a17.34,17.34,0,0,0-.28,2.87v18H438.5Z"/><path class="cls-2" d="M486.38,235.52c-.14,2.45-.28,5.17-.28,9.28v19.62c0,7.74-1.54,12.49-4.82,15.42s-8,4.05-12.28,4.05c-4.05,0-8.52-1-11.24-2.79l1.53-4.68a19.06,19.06,0,0,0,9.92,2.65c6.28,0,10.88-3.28,10.88-11.79v-3.77H480c-1.88,3.14-5.51,5.65-10.74,5.65-8.38,0-14.38-7.12-14.38-16.47,0-11.44,7.47-17.94,15.21-17.94,5.87,0,9.08,3.08,10.54,5.87h.14l.28-5.1ZM480,248.85a9,9,0,0,0-8.93-9.28c-5.86,0-10,5-10,12.77,0,6.63,3.35,12.15,10,12.15a9,9,0,0,0,8.52-6.28,11,11,0,0,0,.48-3.29Z"/><path class="cls-2" d="M349.1,113.77a81.19,81.19,0,0,0,61.58-28.2A68.17,68.17,0,0,1,275.51,73c0-1.8.09-3.58.22-5.35A81.43,81.43,0,0,0,349.1,113.77Z"/><path class="cls-2" d="M359.3,98.86a63.6,63.6,0,0,0,51.38-13.25A53.41,53.41,0,0,1,308.17,57.27c.24-1.39.56-2.75.91-4.09A63.79,63.79,0,0,0,359.3,98.86Z"/><path class="cls-2" d="M358.43,76.09a63.62,63.62,0,0,0,52.08,10.16,53.41,53.41,0,0,1-80.35-69.7c.83-1.15,1.7-2.24,2.59-3.3A63.8,63.8,0,0,0,358.43,76.09Z"/><circle class="cls-2" cx="387.23" cy="59.26" r="23.46"/></svg>
